<?xml version="1.0" encoding="UTF-8" standalone="no"?>
<!-- Created with Inkscape (http://www.inkscape.org/) -->

<svg
   version="1.1"
   id="svg1"
   width="311.57141"
   height="239.04753"
   viewBox="0 0 311.57141 239.04753"
   sodipodi:docname="Blockdiagramm_Heizsystem.svg"
   inkscape:version="1.4 (86a8ad7, 2024-10-11)"
   inkscape:export-filename="Blockdiagramm_Heizsystem.png"
   inkscape:export-xdpi="300"
   inkscape:export-ydpi="300"
   xmlns:inkscape="http://www.inkscape.org/namespaces/inkscape"
   xmlns:sodipodi="http://sodipodi.sourceforge.net/DTD/sodipodi-0.dtd"
   xmlns="http://www.w3.org/2000/svg"
   xmlns:svg="http://www.w3.org/2000/svg">
  <defs
     id="defs1" />
  <sodipodi:namedview
     id="namedview1"
     pagecolor="#ffffff"
     bordercolor="#000000"
     borderopacity="0.25"
     inkscape:showpageshadow="2"
     inkscape:pageopacity="0.0"
     inkscape:pagecheckerboard="0"
     inkscape:deskcolor="#d1d1d1"
     inkscape:zoom="0.75866665"
     inkscape:cx="143.67311"
     inkscape:cy="-172.01231"
     inkscape:window-width="2560"
     inkscape:window-height="1351"
     inkscape:window-x="2391"
     inkscape:window-y="-9"
     inkscape:window-maximized="1"
     inkscape:current-layer="g1"
     inkscape:export-bgcolor="#ffffffff">
    <inkscape:page
       x="9.1699923e-07"
       y="2.8777556e-06"
       inkscape:label="9"
       id="page1"
       width="311.57141"
       height="239.04753"
       margin="0"
       bleed="0" />
  </sodipodi:namedview>
  <g
     id="g1"
     inkscape:groupmode="layer"
     inkscape:label="9"
     transform="translate(-252.21362,-609.89648)">
    <path
       id="path70"
       d="m -17.00804,-17.00804 h 34.0161 v 34.0161 h -34.0161 z"
       style="fill:none;stroke:#000000;stroke-width:0.3985;stroke-linecap:butt;stroke-linejoin:miter;stroke-miterlimit:10;stroke-dasharray:none;stroke-opacity:1"
       transform="matrix(1.3333333,0,0,-1.3333333,422.72933,678.46)" />
    <path
       id="path71"
       d="M 2.1912188,-3.9725938 H 6.9373125 V -4.94525 H 2.1912188 v -2.7890625 h 4.921875 v -0.984375 H 1.0779375 v 8.71875 h 6.2460938 v -0.984375 H 2.1912188 Z m 12.3691402,0 V 6.25e-5 h 1.113282 v -8.71875 H 14.560359 V -4.94525 H 10.083797 V -8.7186875 H 8.9705156 v 8.71875 h 1.1250004 v -3.9726563 z m 4.248047,0.28125 h 2.730469 c 0.679688,0 1.21875,-0.2109375 1.6875,-0.6210937 0.527344,-0.4804688 0.75,-1.0429688 0.75,-1.8398438 0,-1.640625 -0.960937,-2.5664062 -2.683594,-2.5664062 h -3.597656 v 8.71875 h 1.113281 z m 0,-0.984375 v -3.0585937 h 2.320313 c 1.054687,0 1.6875,0.5742187 1.6875,1.5351562 0,0.9492188 -0.632813,1.5234375 -1.6875,1.5234375 z m 0,0"
       style="fill:#000000;fill-opacity:1;fill-rule:nonzero;stroke:none"
       aria-label="EHP"
       transform="matrix(1.3333333,0,0,1.3333333,406.344,684.21867)" />
    <path
       id="path72"
       d="m -12.61638,-68.43088 h 25.23276 v 22.67752 h -25.23276 z"
       style="fill:none;stroke:#000000;stroke-width:0.3985;stroke-linecap:butt;stroke-linejoin:miter;stroke-miterlimit:10;stroke-dasharray:none;stroke-opacity:1"
       transform="matrix(1.3333333,0,0,-1.3333333,422.72933,678.46)" />
    <path
       id="path73"
       d="M 6.5869297,-3.9727734 V -1.171875e-4 H 7.7002109 V -8.7188672 H 6.5869297 v 3.7734375 H 2.1103672 V -8.7188672 H 0.99708594 V -1.171875e-4 H 2.1220859 V -3.9727734 Z m 4.2714843,0.2226562 h 2.871094 c 0.984375,0 1.429687,0.4804688 1.429687,1.546875 l -0.01172,0.7851563 c 0,0.53906246 0.09375,1.05468746 0.246093,1.4179687125 h 1.359375 V -0.26964844 C 16.331068,-0.56261719 16.249037,-0.86730469 16.2256,-2.0274609 c -0.01172,-1.4414063 -0.246094,-1.875 -1.183594,-2.2734375 0.972656,-0.4804688 1.371094,-1.0898438 1.371094,-2.0859375 0,-1.5 -0.949219,-2.3320313 -2.648438,-2.3320313 H 9.7451328 v 8.7187500125 h 1.1132812 z m 0,-0.984375 v -3 h 2.683594 c 0.621094,0 0.984375,0.09375 1.253906,0.3398438 0.304688,0.2460937 0.457031,0.6445312 0.457031,1.171875 0,1.0195312 -0.527343,1.4882812 -1.710937,1.4882812 z m 0,0"
       style="fill:#000000;fill-opacity:1;fill-rule:nonzero;stroke:none"
       aria-label="HR"
       transform="matrix(1.3333333,0,0,1.3333333,411.22133,760.34)" />
    <path
       id="path74"
       d="m 59.92677,-17.00804 h 34.0161 v 34.0161 h -34.0161 z"
       style="fill:none;stroke:#000000;stroke-width:0.3985;stroke-linecap:butt;stroke-linejoin:miter;stroke-miterlimit:10;stroke-dasharray:none;stroke-opacity:1"
       transform="matrix(1.3333333,0,0,-1.3333333,422.72933,678.46)" />
    <path
       id="path75"
       d="M 0.95066406,3.4375e-4 H 4.8764453 c 0.8320313,0 1.4414063,-0.22265625 1.8984375,-0.7265625 C 7.2084766,-1.18325 7.4428516,-1.8043438 7.4428516,-2.4840313 c 0,-1.0546875 -0.46875,-1.6875 -1.5820313,-2.1210937 0.7851563,-0.3632813 1.2070313,-1.0078125 1.2070313,-1.8984375 0,-0.6328125 -0.2460938,-1.1953125 -0.6914063,-1.6054688 -0.4570312,-0.4101562 -1.0546875,-0.609375 -1.8867187,-0.609375 H 0.95066406 Z M 2.0522266,-4.9566875 v -2.7773438 h 2.15625 c 0.6210937,0 0.9726562,0.082031 1.265625,0.3164063 0.3164062,0.234375 0.4804687,0.5976562 0.4804687,1.0664062 0,0.46875 -0.1640625,0.84375 -0.4804687,1.078125 -0.2929688,0.234375 -0.6445313,0.3164063 -1.265625,0.3164063 z m 0,3.97265625 V -3.9840313 h 2.71875 c 0.5390625,0 0.890625,0.140625 1.1601562,0.421875 0.2578125,0.2695313 0.4101563,0.65625 0.4101563,1.0898438 0,0.421875 -0.1523438,0.796875 -0.4101563,1.078125 -0.2695312,0.28125 -0.6210937,0.41015625 -1.1601562,0.41015625 z M 15.098125,-6.152 c -0.01172,-1.7109375 -1.183594,-2.7070313 -3.1875,-2.7070313 -1.921875,0 -3.1054687,0.984375 -3.1054687,2.5546875 0,1.0664063 0.5625,1.734375 1.7109377,2.0390625 l 2.167969,0.5742188 c 1.101562,0.28125 1.605468,0.7265625 1.605468,1.40625 0,0.46875 -0.257812,0.9492187 -0.621093,1.2070312 -0.351563,0.2460938 -0.902344,0.37500005 -1.605469,0.37500005 -0.949219,0 -1.59375,-0.234375 -2.015625,-0.72656255 C 9.7309375,-1.8160625 9.5903125,-2.2379375 9.6020313,-2.777 H 8.5473438 c 0.011719,0.8085937 0.1640625,1.3359375 0.515625,1.8046875 C 9.660625,-0.152 10.668438,0.269875 11.992656,0.269875 c 1.03125,0 1.886719,-0.234375 2.449219,-0.66796875 0.585938,-0.45703125 0.949219,-1.24218755 0.949219,-1.99218755 0,-1.078125 -0.667969,-1.8632812 -1.851563,-2.1914062 L 11.359844,-5.167625 c -1.054688,-0.28125 -1.4414065,-0.6210938 -1.4414065,-1.2890625 0,-0.8789063 0.7851565,-1.4648438 1.9570315,-1.4648438 1.382812,0 2.15625,0.6328125 2.167969,1.7695313 z m 5.080078,-1.5820313 h 2.859375 v -0.984375 h -6.84375 v 0.984375 h 2.871094 V 3.4375e-4 h 1.113281 z m 0,0"
       style="fill:#000000;fill-opacity:1;fill-rule:nonzero;stroke:none"
       aria-label="BST"
       transform="matrix(1.3333333,0,0,1.3333333,509.80667,684.20267)" />
    <path
       id="path76"
       d="m -87.89314,-45.55411 h 45.17368 v 34.0161 h -45.17368 z"
       style="fill:none;stroke:#000000;stroke-width:0.3985;stroke-linecap:butt;stroke-linejoin:miter;stroke-miterlimit:10;stroke-dasharray:none;stroke-opacity:1"
       transform="matrix(1.3333333,0,0,-1.3333333,422.72933,678.46)" />
    <path
       id="path77"
       d="m 7.1236719,-6.1515625 c -0.011719,-1.7109375 -1.1835938,-2.7070312 -3.1875,-2.7070312 -1.921875,0 -3.10546878,0.984375 -3.10546878,2.5546875 0,1.0664062 0.56249998,1.734375 1.71093748,2.0390625 l 2.1679688,0.5742187 c 1.1015625,0.28125 1.6054687,0.7265625 1.6054687,1.40625 0,0.46875 -0.2578125,0.9492188 -0.6210937,1.2070313 -0.3515625,0.2460937 -0.9023438,0.37499995 -1.6054688,0.37499995 -0.9492187,0 -1.59375,-0.234375 -2.015625,-0.72656245 C 1.7564844,-1.815625 1.6158594,-2.2375 1.6275781,-2.7765625 H 0.57289062 c 0.0117188,0.8085938 0.1640625,1.3359375 0.51562498,1.8046875 0.5976563,0.8203125 1.6054688,1.2421875 2.9296875,1.2421875 1.03125,0 1.8867188,-0.234375 2.4492188,-0.66796875 0.5859375,-0.45703125 0.9492187,-1.24218745 0.9492187,-1.99218745 0,-1.078125 -0.6679687,-1.8632813 -1.8515625,-2.1914063 L 3.3853906,-5.1671875 C 2.3307031,-5.4484375 1.9439844,-5.7882812 1.9439844,-6.45625 c 0,-0.8789062 0.7851562,-1.4648437 1.9570312,-1.4648437 1.3828125,0 2.15625,0.6328125 2.1679688,1.7695312 z M 8.6178125,2.6023438 H 9.625625 v -3.25781255 c 0.527344,0.64453125 1.113281,0.92578125 1.921875,0.92578125 1.617187,0 2.671875,-1.3007812 2.671875,-3.2929687 0,-2.109375 -1.019531,-3.421875 -2.683594,-3.421875 -0.84375,0 -1.535156,0.3867187 -1.9921873,1.125 v -0.9375 H 8.6178125 Z m 2.7539065,-8.109375 c 1.101562,0 1.816406,0.9609375 1.816406,2.4609375 0,1.4179687 -0.726563,2.39062495 -1.816406,2.39062495 -1.054688,0 -1.746094,-0.96093745 -1.746094,-2.42578125 0,-1.4765625 0.691406,-2.4257812 1.746094,-2.4257812 z m 5.065429,-3.2109375 H 15.429336 V 7.8125e-4 h 1.007812 z m 2.63086,2.4609375 H 18.071914 V 7.8125e-4 h 0.996094 z m 0,-2.4609375 h -1.007813 v 1.265625 h 1.007813 z m 3.896484,2.4609375 h -1.03125 v -1.7226563 h -0.984375 v 1.7226563 h -0.855469 v 0.8085937 h 0.855469 v 4.734375 c 0,0.6328125 0.421875,0.984375 1.207031,0.984375 0.234375,0 0.480469,-0.0234375 0.808594,-0.0820313 V -0.64375 c -0.128906,0.0351563 -0.28125,0.046875 -0.480469,0.046875 -0.421875,0 -0.550781,-0.1171875 -0.550781,-0.5625 v -4.2890625 h 1.03125 z m 3.322266,0 h -1.03125 v -1.7226563 h -0.984375 v 1.7226563 h -0.855469 v 0.8085937 h 0.855469 v 4.734375 c 0,0.6328125 0.421875,0.984375 1.207031,0.984375 0.234375,0 0.480469,-0.0234375 0.808594,-0.0820313 V -0.64375 c -0.128906,0.0351563 -0.28125,0.046875 -0.480469,0.046875 -0.421875,0 -0.550781,-0.1171875 -0.550781,-0.5625 v -4.2890625 h 1.03125 z M 32.705703,-2.8 c 0,-0.9492187 -0.07031,-1.5234375 -0.246094,-1.9921875 -0.410156,-1.03125 -1.359375,-1.6523437 -2.53125,-1.6523437 -1.746093,0 -2.871093,1.3359375 -2.871093,3.3984375 0,2.0507812 1.089843,3.3164062 2.847656,3.3164062 1.429687,0 2.425781,-0.80859375 2.671875,-2.1679687 h -1.007813 c -0.269531,0.8203125 -0.832031,1.2539062 -1.628906,1.2539062 -0.632812,0 -1.171875,-0.29296875 -1.511719,-0.8085937 C 28.193984,-1.815625 28.111953,-2.1789062 28.100234,-2.8 Z m -4.582031,-0.8085937 c 0.08203,-1.1601563 0.785156,-1.9101563 1.792969,-1.9101563 0.972656,0 1.722656,0.8085938 1.722656,1.8398438 0,0.023437 0,0.046875 -0.01172,0.070312 z M 34.04457,-6.2570312 V 7.8125e-4 h 1.007813 V -3.2453125 c 0,-0.9023437 0.222656,-1.4882812 0.703125,-1.8398437 0.316406,-0.2226563 0.609375,-0.2929688 1.300781,-0.3046875 V -6.409375 c -0.164062,-0.023437 -0.246094,-0.035156 -0.375,-0.035156 -0.644531,0 -1.136719,0.3867187 -1.710937,1.3125 v -1.125 z m 0,0"
       style="fill:#000000;fill-opacity:1;fill-rule:nonzero;stroke:none"
       aria-label="Splitter"
       transform="matrix(1.3333333,0,0,1.3333333,310.85333,720.73333)" />
    <path
       id="path78"
       d="m -82.31436,17.20729 h 34.0161 v 34.0161 h -34.0161 z"
       style="fill:none;stroke:#000000;stroke-width:0.3985;stroke-linecap:butt;stroke-linejoin:miter;stroke-miterlimit:10;stroke-dasharray:none;stroke-opacity:1"
       transform="matrix(1.3333333,0,0,-1.3333333,422.72933,678.46)" />
    <path
       id="path79"
       d="m 2.2044453,-3.6921641 h 2.7304688 c 0.6796875,0 1.21875,-0.2109375 1.6875,-0.6210937 0.5273437,-0.4804688 0.75,-1.0429688 0.75,-1.8398438 0,-1.640625 -0.9609375,-2.5664062 -2.6835938,-2.5664062 H 1.0911641 v 8.7187499875 h 1.1132812 z m 0,-0.984375 v -3.0585937 h 2.3203125 c 1.0546875,0 1.6875,0.5742187 1.6875,1.5351562 0,0.9492188 -0.6328125,1.5234375 -1.6875,1.5234375 z M 10.293313,-8.7195078 H 9.1683125 v 8.7187499875 h 1.1250005 z m 2.071289,8.7187499875 h 3.351562 c 2.203125,0 3.550781,-1.6523437875 3.550781,-4.3593749875 0,-2.7070313 -1.335937,-4.359375 -3.550781,-4.359375 H 12.364602 Z M 13.477883,-0.98513281 V -7.7351328 h 2.050781 c 1.722656,0 2.625,1.1601562 2.625,3.3867187 0,2.1914063 -0.902344,3.36328129 -2.625,3.36328129 z m 0,0"
       style="fill:#000000;fill-opacity:1;fill-rule:nonzero;stroke:none"
       aria-label="PID"
       transform="matrix(1.3333333,0,0,1.3333333,322.36933,638.59867)" />
    <path
       id="path80"
       d="m -96.88626,34.21535 c 0,5.49891 -6.89499,9.95654 -15.40064,9.95654 -8.50564,0 -15.40063,-4.45763 -15.40063,-9.95654 0,-5.49892 6.89499,-9.95656 15.40063,-9.95656 8.50565,0 15.40064,4.45764 15.40064,9.95656 z"
       style="fill:none;stroke:#000000;stroke-width:0.3985;stroke-linecap:butt;stroke-linejoin:miter;stroke-miterlimit:10;stroke-dasharray:none;stroke-opacity:1"
       transform="matrix(1.3333333,0,0,-1.3333333,422.72933,678.46)" />
    <g
       id="g80"
       aria-label="ϑ&#10;set"
       transform="matrix(1.3333333,0,0,1.3333333,261.15333,637.18)">
      <path
         id="path81"
         d="m 5.9406641,-4.2541406 c 0.2109375,-0.9257813 0.234375,-1.4296875 0.234375,-1.828125 0,-0.8320313 -0.1757813,-2.3320313 -1.265625,-2.3320313 -0.9726563,0 -1.7226563,1.2890625 -1.7226563,2.1796875 0,1.1835938 1.1835938,1.7460938 1.921875,1.9921875 -0.3164062,1.3359375 -0.5625,2.0273438 -0.9023437,2.7070313 -0.5039063,0.97265622 -0.9023438,1.41796872 -1.3828125,1.41796872 -0.8671875,0 -0.8789063,-0.71484375 -0.8789063,-0.96093752 0,-0.2695312 0.058594,-0.5625 0.1640625,-0.9726562 0.070312,-0.3046875 0.140625,-0.5625 0.2226563,-0.9257813 0.1054687,-0.4101562 0.046875,-0.1523437 0.140625,-0.5742187 0.058594,-0.2109375 0.1171875,-0.4570313 0.1171875,-0.6445313 0,-0.7265625 -0.5507813,-1.078125 -1.03125,-1.078125 -0.3515625,0 -0.62109379,0.1640625 -0.85546879,0.6210938 -0.2109375,0.4335937 -0.375,1.1601562 -0.375,1.2070312 0,0.046875 0.046875,0.1054688 0.12890625,0.1054688 0.09375,0 0.10546875,-0.011719 0.17578125,-0.28125 0.17578125,-0.703125 0.41015629,-1.40625 0.89062499,-1.40625 0.2695313,0 0.3632813,0.1875 0.3632813,0.5390625 0,0.2695312 -0.046875,0.4453125 -0.1289063,0.7851562 -0.058594,0.2578125 -0.1640625,0.6679688 -0.2109375,0.8671875 l -0.2226562,0.8789063 c -0.09375,0.4101562 -0.09375,0.5859375 -0.09375,0.7382812 0,0.1640625 0,0.70312502 0.4335937,1.04296877 0.3867188,0.28125 0.9257813,0.29296875 1.125,0.29296875 1.3710938,0 2.6132813,-2.27343752 3.09375,-4.13671872 0.2695313,0.058594 0.4921875,0.1054687 0.5507813,0.1054687 0.070312,0 0.1054687,-0.082031 0.1054687,-0.1289062 0,-0.082031 -0.082031,-0.09375 -0.2578125,-0.1289063 z M 5.1789453,-4.4885156 C 4.0656641,-4.8517969 3.4562891,-5.4494531 3.4562891,-6.2463281 c 0,-0.7851563 0.6328125,-1.9335938 1.4296875,-1.9335938 0.5742187,0 0.6328125,0.7617188 0.6328125,1.4296875 0,0.6914063 -0.1289063,1.3125 -0.3398438,2.2617188 z m 0,0"
         style="fill:#000000;fill-opacity:1;fill-rule:nonzero;stroke:none" />
      <path
         id="path82"
         d="m 9.7346094,-1.5588281 c 0,-0.1171875 0,-0.1992188 -0.1054688,-0.1992188 -0.035156,0 -0.058594,0 -0.1875,0.1289063 -0.011719,0 -0.09375,0.070312 -0.1171875,0.070312 0,0 -0.023437,0 -0.070312,-0.023437 -0.1289062,-0.09375 -0.3515625,-0.1757813 -0.7148437,-0.1757813 -1.1132813,0 -1.359375,0.5976563 -1.359375,0.98437502 0,0.3984375 0.2929687,0.6328125 0.3164062,0.65625 0.3164063,0.234375 0.5039063,0.26953125 1.03125,0.36328125 0.375,0.0703125 0.9960938,0.1875 0.9960938,0.7265625 0,0.30468753 -0.2109375,0.67968753 -0.9492188,0.67968753 -0.796875,0 -1.03125,-0.6210938 -1.1367187,-1.04296878 -0.023437,-0.10546875 -0.035156,-0.15234375 -0.1289063,-0.15234375 -0.1289062,0 -0.1289062,0.0703125 -0.1289062,0.22265625 V 1.6638281 c 0,0.1289063 0,0.2109375 0.1054687,0.2109375 0.046875,0 0.046875,-0.011719 0.1992188,-0.1640625 0.035156,-0.035156 0.1289062,-0.140625 0.1640625,-0.1757812 0.3632812,0.3164062 0.7265625,0.3398437 0.9375,0.3398437 1.0195312,0 1.359375,-0.5859375 1.359375,-1.11328123 0,-0.375 -0.2226563,-0.9375 -1.171875,-1.11328125 -0.070312,-0.0117188 -0.515625,-0.09375 -0.5390625,-0.09375 -0.2578125,-0.0585938 -0.6210938,-0.22265625 -0.6210938,-0.5390625 0,-0.24609372 0.1640625,-0.57421872 0.9257813,-0.57421872 0.890625,0 0.9375,0.64453122 0.9492187,0.87890622 0.011719,0.0585938 0.058594,0.0820313 0.1171875,0.0820313 0.1289063,0 0.1289063,-0.0585938 0.1289063,-0.2109375 z m 3.7968746,1.53515622 c 0.175782,0 0.222657,0 0.222657,-0.1875 0,-0.703125 -0.386719,-1.54687502 -1.511719,-1.54687502 -0.996094,0 -1.769531,0.82031252 -1.769531,1.80468752 0,1.03124998 0.867187,1.82812498 1.875,1.82812498 1.007812,0 1.40625,-0.8554687 1.40625,-1.04296873 0,-0.0234375 -0.02344,-0.10546875 -0.128907,-0.10546875 -0.08203,0 -0.105468,0.0585938 -0.117187,0.10546875 -0.292969,0.77343753 -0.972656,0.79687503 -1.113281,0.79687503 -0.363282,0 -0.726563,-0.1757813 -0.972657,-0.5390625 -0.234375,-0.36328128 -0.234375,-0.87890628 -0.234375,-1.11328128 z m -2.332031,-0.2109375 c 0.07031,-1.11328122 0.75,-1.30078122 1.042969,-1.30078122 0.925781,0 0.960937,1.12499997 0.972656,1.30078122 z m 4.280274,-1.14843752 h 1.195312 v -0.2578125 h -1.195312 v -1.4648437 h -0.246094 c 0,0.7265625 -0.328125,1.4765625 -1.066406,1.5 v 0.2226562 h 0.714843 v 2.17968752 c 0,0.93749998 0.714844,1.07812498 1.078125,1.07812498 0.539063,0 0.855469,-0.4804687 0.855469,-1.07812498 V 0.35132812 H 16.56957 v 0.43359375 c 0,0.55078123 -0.246093,0.84375003 -0.550781,0.84375003 -0.539062,0 -0.539062,-0.69140628 -0.539062,-0.82031253 z m 0,0"
         style="fill:#000000;fill-opacity:1;fill-rule:nonzero;stroke:none" />
    </g>
    <path
       id="path83"
       d="m 51.68788,-74.10016 h 50.49388 v 34.0161 H 51.68788 Z"
       style="fill:none;stroke:#000000;stroke-width:0.3985;stroke-linecap:butt;stroke-linejoin:miter;stroke-miterlimit:10;stroke-dasharray:none;stroke-opacity:1"
       transform="matrix(1.3333333,0,0,-1.3333333,422.72933,678.46)" />
    <path
       id="path84"
       d="M 0.94799219,-1.953125e-4 H 4.8737734 c 0.8320313,0 1.4414063,-0.2226562475 1.8984375,-0.7265624975 0.4335938,-0.45703129 0.6679688,-1.07812499 0.6679688,-1.75781249 0,-1.0546875 -0.46875,-1.6875 -1.5820313,-2.1210938 0.7851563,-0.3632812 1.2070313,-1.0078125 1.2070313,-1.8984375 0,-0.6328125 -0.2460938,-1.1953125 -0.6914063,-1.6054687 -0.4570312,-0.4101563 -1.0546875,-0.609375 -1.8867187,-0.609375 H 0.94799219 Z M 2.0495547,-4.9572266 v -2.7773437 h 2.15625 c 0.6210937,0 0.9726562,0.082031 1.265625,0.3164062 0.3164062,0.234375 0.4804687,0.5976563 0.4804687,1.0664063 0,0.46875 -0.1640625,0.84375 -0.4804687,1.078125 -0.2929688,0.234375 -0.6445313,0.3164062 -1.265625,0.3164062 z m 0,3.97265629 V -3.9845703 h 2.71875 c 0.5390625,0 0.890625,0.140625 1.1601562,0.421875 0.2578125,0.2695312 0.4101563,0.65625 0.4101563,1.0898437 0,0.421875 -0.1523438,0.796875 -0.4101563,1.078125 -0.2695312,0.28125 -0.6210937,0.41015629 -1.1601562,0.41015629 z M 13.739008,-1.953125e-4 V -6.2580078 h -0.996094 v 3.5390625 c 0,1.2890625 -0.667969,2.12109374 -1.710937,2.12109374 -0.785157,0 -1.2890629,-0.48046874 -1.2890629,-1.23046874 V -6.2580078 H 8.7468203 v 4.828125 c 0,1.03124999 0.7851563,1.69921874 2.0039067,1.69921874 0.914062,0 1.5,-0.31640625 2.085937,-1.13671875 V -1.953125e-4 Z M 16.413813,-6.2580078 h -0.996094 v 6.2578124875 h 0.996094 z m 0,-2.4609375 H 15.406 v 1.265625 h 1.007813 z m 2.677734,0 h -1.007813 v 8.7187499875 h 1.007813 z m 6.755859,0 h -0.996093 v 3.2460937 c -0.410157,-0.6328125 -1.089844,-0.9726562 -1.921875,-0.9726562 -1.628907,0 -2.683594,1.3007812 -2.683594,3.3046875 0,2.109375 1.03125,3.41015624 2.71875,3.41015624 0.867187,0 1.464844,-0.31640625 1.992187,-1.08984375 v 0.8203124975 h 0.890625 z M 23.0935,-5.5080078 c 1.078125,0 1.757813,0.9492187 1.757813,2.4492187 0,1.4414063 -0.691407,2.40234379 -1.746094,2.40234379 -1.101563,0 -1.828125,-0.97265629 -1.828125,-2.42578129 0,-1.4648437 0.726562,-2.4257812 1.816406,-2.4257812 z m 5.276367,-0.75 h -0.996094 v 6.2578124875 h 0.996094 z m 0,-2.4609375 h -1.007812 v 1.265625 h 1.007812 z m 1.69336,2.4609375 v 6.2578124875 h 1.007812 V -3.4572266 c 0,-1.2773437 0.667969,-2.109375 1.699219,-2.109375 0.785156,0 1.289062,0.46875 1.289062,1.2304688 v 4.3359374875 h 0.996094 V -4.7345703 c 0,-1.0429688 -0.785156,-1.7109375 -1.992187,-1.7109375 -0.925782,0 -1.523438,0.3632812 -2.074219,1.2304687 v -1.0429687 z m 10.737304,0 v 0.9023437 c -0.503906,-0.7382812 -1.113281,-1.0898437 -1.910156,-1.0898437 -1.59375,0 -2.660156,1.3945312 -2.660156,3.421875 0,1.03125 0.269531,1.8632812 0.785156,2.46093749 0.46875,0.52734375 1.136719,0.83203125 1.792969,0.83203125 0.785156,0 1.335937,-0.328125 1.898437,-1.11328125 v 0.31640625 c 0,0.85546875 -0.105468,1.359375 -0.363281,1.71093746 -0.257812,0.375 -0.773437,0.5859375 -1.382812,0.5859375 -0.457032,0 -0.855469,-0.1171875 -1.136719,-0.3398437 -0.222656,-0.1757813 -0.316406,-0.3398438 -0.375,-0.71484376 h -1.019531 c 0.105468,1.18359376 1.03125,1.88671876 2.496093,1.88671876 0.9375,0 1.734375,-0.2929688 2.144532,-0.796875 0.46875,-0.5742188 0.65625,-1.35937501 0.65625,-2.8359375 v -5.2265625 z m -1.804687,0.7382812 c 1.078125,0 1.710937,0.9023438 1.710937,2.4726563 0,1.4882812 -0.644531,2.40234374 -1.699218,2.40234374 -1.089844,0 -1.746094,-0.92578124 -1.746094,-2.43750004 0,-1.5117187 0.667969,-2.4375 1.734375,-2.4375 z m 0,0"
       style="fill:#000000;fill-opacity:1;fill-rule:nonzero;stroke:none"
       aria-label="Building"
       transform="matrix(1.3333333,0,0,1.3333333,496.95867,758.56667)" />
    <path
       id="path85"
       d="m 105.59253,-110.8693 c 0,4.43148 -12.83031,8.02383 -28.65772,8.02383 -15.82739,0 -28.6577,-3.59235 -28.6577,-8.02383 0,-4.43148 12.83031,-8.02381 28.6577,-8.02381 15.82741,0 28.65772,3.59233 28.65772,8.02381 z"
       style="fill:none;stroke:#000000;stroke-width:0.3985;stroke-linecap:butt;stroke-linejoin:miter;stroke-miterlimit:10;stroke-dasharray:none;stroke-opacity:1"
       transform="matrix(1.3333333,0,0,-1.3333333,422.72933,678.46)" />
    <path
       id="path86"
       d="m 4.7216406,-2.1801953 0.75,2.1796874875 h 1.03125 L 3.9482031,-7.2661328 H 2.7528906 L 0.16304688,-5.078125e-4 H 1.1591406 L 1.9208594,-2.1801953 Z M 4.4638281,-2.9536328 H 2.1552344 L 3.3505469,-6.2700391 Z M 7.3495703,-5.2153516 V -5.078125e-4 H 8.1816016 V -3.2817578 c 0,-0.75 0.5507812,-1.359375 1.21875,-1.359375 0.6210934,0 0.9726564,0.375 0.9726564,1.0429687 v 3.5976562875 h 0.832031 V -3.2817578 c 0,-0.75 0.550781,-1.359375 1.230469,-1.359375 0.609375,0 0.960937,0.3867187 0.960937,1.0429687 v 3.5976562875 h 0.84375 V -3.9145703 c 0,-0.9375 -0.539062,-1.453125 -1.511718,-1.453125 -0.703125,0 -1.125,0.2109375 -1.605469,0.796875 -0.316406,-0.5625 -0.726563,-0.796875 -1.4062502,-0.796875 -0.703125,0 -1.1601562,0.2578125 -1.6054687,0.8789062 v -0.7265625 z m 8.1328127,-2.0507812 v 7.2656249875 h 0.75 V -0.66847656 c 0.398437,0.609375 0.925781,0.90234375 1.652344,0.90234375 1.371093,0 2.273437,-1.13671875 2.273437,-2.85937499 0,-1.6992188 -0.867187,-2.7421875 -2.238281,-2.7421875 -0.714844,0 -1.21875,0.2695312 -1.617188,0.8554687 v -2.7539062 z m 2.285156,2.671875 c 0.925781,0 1.523438,0.8085937 1.523438,2.0507812 0,1.1835938 -0.621094,1.99218754 -1.523438,1.99218754 -0.878906,0 -1.464844,-0.79687504 -1.464844,-2.01562504 0,-1.2304687 0.585938,-2.0273437 1.464844,-2.0273437 z m 4.21582,-0.6210938 h -0.832031 v 5.2148437875 h 0.832031 z m 0,-2.0507812 h -0.84375 v 1.0546875 h 0.84375 z m 5.821289,4.9335937 c 0,-0.796875 -0.05859,-1.2773437 -0.210937,-1.6640625 -0.339844,-0.8554687 -1.136719,-1.3710937 -2.109375,-1.3710937 -1.453125,0 -2.390625,1.1132812 -2.390625,2.8242187 0,1.71093754 0.902344,2.77734379 2.367187,2.77734379 1.195313,0 2.027344,-0.6796875 2.238282,-1.81640629 h -0.84375 c -0.222657,0.67968754 -0.691407,1.04296879 -1.359375,1.04296879 -0.527344,0 -0.972657,-0.234375 -1.253907,-0.67968749 -0.199218,-0.2929688 -0.269531,-0.5976563 -0.28125,-1.1132813 z m -3.820312,-0.6796875 c 0.07031,-0.9609375 0.65625,-1.59375 1.488281,-1.59375 0.820313,0 1.441406,0.6796875 1.441406,1.5351563 0,0.023437 0,0.046875 0,0.058594 z m 4.954102,-2.203125 v 5.2148437875 h 0.832031 V -2.8833203 c 0,-1.0664063 0.5625,-1.7578125 1.417969,-1.7578125 0.65625,0 1.066406,0.3984375 1.066406,1.0195312 v 3.6210937875 h 0.832031 V -3.9497266 c 0,-0.8671875 -0.644531,-1.4179687 -1.652344,-1.4179687 -0.773437,0 -1.277343,0.2929687 -1.734375,1.0195312 v -0.8671875 z m 7.365234,0 h -0.855469 v -1.4414062 h -0.832031 v 1.4414062 h -0.703125 v 0.6679688 h 0.703125 v 3.94921874 c 0,0.52734375 0.363281,0.83203125 1.007812,0.83203125 0.199219,0 0.398438,-0.0234375 0.679688,-0.0703125 v -0.703125 c -0.105469,0.0351563 -0.234375,0.0351563 -0.398438,0.0351563 -0.363281,0 -0.457031,-0.09375 -0.457031,-0.45703125 V -4.5473828 h 0.855469 z m 0,0"
       style="fill:#000000;fill-opacity:1;fill-rule:nonzero;stroke:none"
       aria-label="Ambient"
       transform="matrix(1.3333333,0,0,1.3333333,500.94667,830.97333)" />
    <path
       id="path87"
       d="m 26.01591,-110.8693 c 0,9.27544 -11.64753,16.79447 -26.01591,16.79447 -14.36838,0 -26.01591,-7.51903 -26.01591,-16.79447 0,-9.27544 11.64753,-16.79446 26.01591,-16.79446 14.36838,0 26.01591,7.51902 26.01591,16.79446 z"
       style="fill:none;stroke:#000000;stroke-width:0.3985;stroke-linecap:butt;stroke-linejoin:miter;stroke-miterlimit:10;stroke-dasharray:none;stroke-opacity:1"
       transform="matrix(1.3333333,0,0,-1.3333333,422.72933,678.46)" />
    <path
       id="path88"
       d="M 1.8286562,-3.3053438 H 5.777875 V -4.1256563 H 1.8286562 V -6.4459688 H 5.9302187 V -7.2662813 H 0.902875 V -6.5625e-4 H 6.106 v -0.8203125 H 1.8286562 Z m 6.328125,-3.9609375 H 7.32475 v 7.26562505 h 0.8320312 z m 5.8095708,4.9335938 c 0,-0.796875 -0.05859,-1.2773438 -0.210938,-1.6640625 -0.339844,-0.8554688 -1.136719,-1.3710938 -2.109375,-1.3710938 -1.453125,0 -2.3906249,1.1132813 -2.3906249,2.8242188 0,1.7109375 0.9023439,2.77734375 2.3671879,2.77734375 1.195312,0 2.027343,-0.6796875 2.238281,-1.81640625 h -0.84375 c -0.222656,0.6796875 -0.691406,1.04296875 -1.359375,1.04296875 -0.527344,0 -0.972656,-0.234375 -1.253906,-0.67968755 -0.199219,-0.2929687 -0.269532,-0.5976562 -0.28125,-1.1132812 z M 10.146039,-3.012375 c 0.07031,-0.9609375 0.65625,-1.59375 1.488281,-1.59375 0.820313,0 1.441407,0.6796875 1.441407,1.5351562 0,0.023437 0,0.046875 0,0.058594 z m 8.938477,-0.4570313 c -0.03516,-0.5039062 -0.140625,-0.8320312 -0.339844,-1.125 -0.363281,-0.4921875 -0.996094,-0.7734375 -1.722656,-0.7734375 -1.394532,0 -2.320313,1.1132813 -2.320313,2.8476563 0,1.6875 0.902344,2.75390625 2.320313,2.75390625 1.242187,0 2.027343,-0.75 2.121093,-2.02734375 h -0.832031 c -0.140625,0.83203125 -0.5625,1.25390625 -1.277344,1.25390625 -0.914062,0 -1.464843,-0.75000005 -1.464843,-1.98046875 0,-1.3007813 0.539062,-2.0859375 1.453125,-2.0859375 0.691406,0 1.125,0.4101562 1.230468,1.1367187 z M 21.908734,-5.2155 H 21.053266 V -6.6569063 H 20.221234 V -5.2155 h -0.703125 v 0.6679687 h 0.703125 v 3.9492188 c 0,0.52734375 0.363282,0.83203125 1.007813,0.83203125 0.199219,0 0.398437,-0.0234375 0.679687,-0.0703125 v -0.703125 c -0.105468,0.0351563 -0.234375,0.0351563 -0.398437,0.0351563 -0.363281,0 -0.457031,-0.09375 -0.457031,-0.45703125 v -3.5859376 h 0.855468 z m 0.928711,0 v 5.21484375 h 0.832032 V -2.7076875 c 0,-0.75 0.1875,-1.2421875 0.585937,-1.5234375 0.257813,-0.1875 0.515625,-0.2578125 1.089844,-0.2578125 v -0.8554688 c -0.140625,-0.011719 -0.210938,-0.023437 -0.316406,-0.023437 -0.539063,0 -0.949219,0.3164063 -1.429688,1.0898438 v -0.9375 z m 4.277344,0 h -0.832031 v 5.21484375 h 0.832031 z m 0,-2.0507813 h -0.84375 v 1.0546875 h 0.84375 z m 5.399414,3.796875 c -0.03516,-0.5039062 -0.140625,-0.8320312 -0.339844,-1.125 -0.363281,-0.4921875 -0.996093,-0.7734375 -1.722656,-0.7734375 -1.394531,0 -2.320312,1.1132813 -2.320312,2.8476563 0,1.6875 0.902343,2.75390625 2.320312,2.75390625 1.242188,0 2.027344,-0.75 2.121094,-2.02734375 h -0.832031 c -0.140625,0.83203125 -0.5625,1.25390625 -1.277344,1.25390625 -0.914063,0 -1.464844,-0.75000005 -1.464844,-1.98046875 0,-1.3007813 0.539063,-2.0859375 1.453125,-2.0859375 0.691406,0 1.125,0.4101562 1.230469,1.1367187 z M 12.176312,5.1350859 v 0.75 c -0.410156,-0.6210937 -0.925781,-0.9023437 -1.59375,-0.9023437 -1.3242183,0 -2.2148433,1.1484375 -2.2148433,2.8476562 0,0.8554688 0.2226563,1.5585938 0.65625,2.0507813 0.3867188,0.4335933 0.9492188,0.7031253 1.4882813,0.7031253 0.65625,0 1.113281,-0.28125 1.582031,-0.9375003 v 0.2695312 c 0,0.7031251 -0.08203,1.1367191 -0.292969,1.4179691 -0.222656,0.316406 -0.644531,0.492187 -1.160156,0.492187 -0.375,0 -0.7148435,-0.105469 -0.9374998,-0.28125 C 9.5044375,11.392898 9.434125,11.252273 9.3755312,10.947586 h -0.84375 c 0.09375,0.984375 0.8554688,1.570312 2.0859378,1.570312 0.773437,0 1.441406,-0.246093 1.78125,-0.667968 0.398437,-0.46875 0.550781,-1.136719 0.550781,-2.3554691 v -4.359375 z m -1.5,0.609375 c 0.890625,0 1.417969,0.7617188 1.417969,2.0625 0,1.2421875 -0.527344,2.0039063 -1.40625,2.0039063 -0.9140623,0 -1.4531248,-0.7617188 -1.4531248,-2.0273438 0,-1.2539062 0.5507813,-2.0390625 1.4414058,-2.0390625 z m 3.530274,-0.609375 V 10.34993 h 0.832031 V 7.6428984 c 0,-0.75 0.1875,-1.2421875 0.585938,-1.5234375 0.257812,-0.1875 0.515625,-0.2578125 1.089843,-0.2578125 V 5.0061797 c -0.140625,-0.011719 -0.210937,-0.023437 -0.316406,-0.023437 -0.539062,0 -0.949219,0.3164062 -1.429687,1.0898437 v -0.9375 z m 4.274414,0 H 17.648969 V 10.34993 H 18.481 Z m 0,-2.0507812 H 17.63725 V 4.1389922 H 18.481 Z m 5.645508,0 H 23.294477 V 5.7913359 C 22.942914,5.2639922 22.392133,4.9827422 21.689008,4.9827422 c -1.347656,0 -2.238281,1.078125 -2.238281,2.7421875 0,1.7695312 0.867187,2.8593753 2.273437,2.8593753 0.714844,0 1.21875,-0.269532 1.664063,-0.9257816 V 10.34993 h 0.738281 z m -2.296875,2.671875 c 0.902344,0 1.464844,0.796875 1.464844,2.0390625 0,1.2070312 -0.574219,2.0039062 -1.453125,2.0039062 -0.914063,0 -1.523438,-0.8085937 -1.523438,-2.015625 0,-1.21875 0.609375,-2.0273437 1.511719,-2.0273437 z m 0,0"
       style="fill:#000000;fill-opacity:1;fill-rule:nonzero;stroke:none"
       aria-label="Electric&#10;grid"
       transform="matrix(1.3333333,0,0,1.3333333,400.85867,822.704)" />
    <path
       id="path89"
       d="M -96.68701,34.21535 H -82.9719"
       style="fill:none;stroke:#000000;stroke-width:0.3985;stroke-linecap:butt;stroke-linejoin:miter;stroke-miterlimit:10;stroke-dasharray:none;stroke-opacity:1"
       transform="matrix(1.3333333,0,0,-1.3333333,422.72933,678.46)" />
    <path
       id="path90"
       d="M -1.19551,1.59401 C -1.09587,0.99626 0,0.09961 0.29886,0 0,-0.09961 -1.09587,-0.99626 -1.19551,-1.59401"
       style="fill:none;stroke:#000000;stroke-width:0.31879;stroke-linecap:round;stroke-linejoin:round;stroke-miterlimit:10;stroke-dasharray:none;stroke-opacity:1"
       transform="matrix(1.3333333,0,0,-1.3333333,312.10013,632.83953)" />
    <path
       id="path91"
       d="M -65.3063,17.00804 V -10.88048"
       style="fill:none;stroke:#000000;stroke-width:0.3985;stroke-linecap:butt;stroke-linejoin:miter;stroke-miterlimit:10;stroke-dasharray:none;stroke-opacity:1"
       transform="matrix(1.3333333,0,0,-1.3333333,422.72933,678.46)" />
    <path
       id="path92"
       d="M -1.19551,1.59401 C -1.09587,0.99626 0,0.09961 0.29886,0 0,-0.09961 -1.09587,-0.99626 -1.19551,-1.59401"
       style="fill:none;stroke:#000000;stroke-width:0.31879;stroke-linecap:round;stroke-linejoin:round;stroke-miterlimit:10;stroke-dasharray:none;stroke-opacity:1"
       transform="matrix(0,1.3333333,1.3333333,0,335.65427,692.96731)" />
    <path
       id="path93"
       d="m -27.8712,-28.54605 c 0,1.10046 -0.89208,1.99255 -1.99255,1.99255 -1.10047,0 -1.99256,-0.89209 -1.99256,-1.99255 0,-1.10048 0.89209,-1.99255 1.99256,-1.99255 1.10047,0 1.99255,0.89207 1.99255,1.99255 z"
       style="fill:#000000;fill-opacity:1;fill-rule:nonzero;stroke:none"
       transform="matrix(1.3333333,0,0,-1.3333333,422.72933,678.46)" />
    <path
       id="path94"
       d="m -42.52022,-28.54605 h 12.65647 V 0 h 12.19818"
       style="fill:none;stroke:#000000;stroke-width:0.3985;stroke-linecap:butt;stroke-linejoin:miter;stroke-miterlimit:10;stroke-dasharray:none;stroke-opacity:1"
       transform="matrix(1.3333333,0,0,-1.3333333,422.72933,678.46)" />
    <path
       id="path95"
       d="M -1.19551,1.59401 C -1.09587,0.99626 0,0.09961 0.29886,0 0,-0.09961 -1.09587,-0.99626 -1.19551,-1.59401"
       style="fill:none;stroke:#000000;stroke-width:0.31879;stroke-linecap:round;stroke-linejoin:round;stroke-miterlimit:10;stroke-dasharray:none;stroke-opacity:1"
       transform="matrix(1.3333333,0,0,-1.3333333,399.17524,678.46)" />
    <path
       id="path96"
       d="m -42.52022,-28.54605 h 12.65647 v -28.54607 h 16.58984"
       style="fill:none;stroke:#000000;stroke-width:0.3985;stroke-linecap:butt;stroke-linejoin:miter;stroke-miterlimit:10;stroke-dasharray:none;stroke-opacity:1"
       transform="matrix(1.3333333,0,0,-1.3333333,422.72933,678.46)" />
    <path
       id="path97"
       d="M -1.19551,1.59401 C -1.09587,0.99626 0,0.09961 0.29886,0 0,-0.09961 -1.09587,-0.99626 -1.19551,-1.59401"
       style="fill:none;stroke:#000000;stroke-width:0.31879;stroke-linecap:round;stroke-linejoin:round;stroke-miterlimit:10;stroke-dasharray:none;stroke-opacity:1"
       transform="matrix(1.3333333,0,0,-1.3333333,405.03079,754.58283)" />
    <path
       id="path98"
       d="M 17.20729,0 H 34.34795 V 0 H 59.72752"
       style="fill:none;stroke:#ff6600;stroke-width:1.49442;stroke-linecap:butt;stroke-linejoin:miter;stroke-miterlimit:10;stroke-dasharray:none;stroke-opacity:1"
       transform="matrix(1.3333333,0,0,-1.3333333,422.72933,678.46)" />
    <path
       id="path99"
       d="M 17.20729,0 H 34.34795 V -57.09212 H 51.48862"
       style="fill:none;stroke:#ff6600;stroke-width:1.49442;stroke-linecap:butt;stroke-linejoin:miter;stroke-miterlimit:10;stroke-dasharray:none;stroke-opacity:1"
       transform="matrix(1.3333333,0,0,-1.3333333,422.72933,678.46)" />
    <path
       id="path100"
       d="m 12.81563,-57.09212 h 21.53232 v 0"
       style="fill:none;stroke:#ff6600;stroke-width:1.49442;stroke-linecap:butt;stroke-linejoin:miter;stroke-miterlimit:10;stroke-dasharray:none;stroke-opacity:1"
       transform="matrix(1.3333333,0,0,-1.3333333,422.72933,678.46)" />
    <path
       id="path101"
       d="m 76.93481,-74.29942 v -28.3468"
       style="fill:none;stroke:#004cff;stroke-width:1.49442;stroke-linecap:butt;stroke-linejoin:miter;stroke-miterlimit:10;stroke-dasharray:none;stroke-opacity:1"
       transform="matrix(1.3333333,0,0,-1.3333333,422.72933,678.46)" />
    <path
       id="path102"
       d="m 35.84236,0 c 0,0.82533 -0.66906,1.49442 -1.49441,1.49442 -0.82535,0 -1.49442,-0.66909 -1.49442,-1.49442 0,-0.82533 0.66907,-1.49442 1.49442,-1.49442 0.82535,0 1.49441,0.66909 1.49441,1.49442 z"
       style="fill:#ff6600;fill-opacity:1;fill-rule:nonzero;stroke:#ff6600;stroke-width:1.49442;stroke-linecap:butt;stroke-linejoin:miter;stroke-miterlimit:10;stroke-dasharray:none;stroke-opacity:1"
       transform="matrix(1.3333333,0,0,-1.3333333,422.72933,678.46)" />
    <path
       id="path103"
       d="m 35.84236,-57.09212 c 0,0.82535 -0.66906,1.49442 -1.49441,1.49442 -0.82535,0 -1.49442,-0.66907 -1.49442,-1.49442 0,-0.82535 0.66907,-1.49441 1.49442,-1.49441 0.82535,0 1.49441,0.66906 1.49441,1.49441 z"
       style="fill:#ff6600;fill-opacity:1;fill-rule:nonzero;stroke:#ff6600;stroke-width:1.49442;stroke-linecap:butt;stroke-linejoin:miter;stroke-miterlimit:10;stroke-dasharray:none;stroke-opacity:1"
       transform="matrix(1.3333333,0,0,-1.3333333,422.72933,678.46)" />
    <path
       id="path104"
       d="M 76.93481,17.20729 V 34.21535 H -47.64073"
       style="fill:none;stroke:#000000;stroke-width:0.3985;stroke-linecap:butt;stroke-linejoin:miter;stroke-miterlimit:10;stroke-dasharray:2.98883, 2.98883;stroke-dashoffset:0;stroke-opacity:1"
       transform="matrix(1.3333333,0,0,-1.3333333,422.72933,678.46)" />
    <path
       id="path105"
       d="M -1.19551,1.59401 C -1.09587,0.99626 0,0.09961 0.29886,0 0,-0.09961 -1.09587,-0.99626 -1.19551,-1.59401"
       style="fill:none;stroke:#000000;stroke-width:0.31879;stroke-linecap:round;stroke-linejoin:round;stroke-miterlimit:10;stroke-dasharray:none;stroke-opacity:1"
       transform="matrix(-1.3333333,0,0,1.3333333,359.20836,632.83953)" />
    <path
       id="path106"
       d="m 0,-93.87558 v 25.24545"
       style="fill:none;stroke:#00ff80;stroke-width:1.49442;stroke-linecap:butt;stroke-linejoin:miter;stroke-miterlimit:10;stroke-dasharray:2.98883, 2.98883;stroke-dashoffset:0;stroke-opacity:1"
       transform="matrix(1.3333333,0,0,-1.3333333,422.72933,678.46)" />
    <path
       id="path107"
       d="m 0,-45.55411 v 28.34682"
       style="fill:none;stroke:#00ff80;stroke-width:1.49442;stroke-linecap:butt;stroke-linejoin:miter;stroke-miterlimit:10;stroke-dasharray:2.98883, 2.98883;stroke-dashoffset:0;stroke-opacity:1"
       transform="matrix(1.3333333,0,0,-1.3333333,422.72933,678.46)" />
  </g>
</svg>
